<svg xmlns="http://www.w3.org/2000/svg" xmlns:xlink="http://www.w3.org/1999/xlink" viewBox="0 0 1344.09 841.89"><defs><style>.cls-1{fill:none;}.cls-2{fill:#878787;}.cls-2,.cls-3,.cls-4,.cls-5,.cls-6,.cls-7{stroke:#fff;stroke-miterlimit:10;stroke-width:2px;}.cls-3{fill:#afafaf;}.cls-4{fill:#9b9b9b;}.cls-5{fill:#7f7f7f;}.cls-6{fill:#686868;}.cls-8{isolation:isolate;}.cls-9{fill:url(#linear-gradient);}.cls-10{fill:url(#linear-gradient-2);}.cls-11{fill:url(#linear-gradient-3);}.cls-12{opacity:0.25;mix-blend-mode:multiply;fill:url(#New_Pattern);}.cls-13{font-size:40px;fill:#fff;font-family:Roboto-Light, Roboto;font-weight:300;letter-spacing:0.5em;}.cls-14{letter-spacing:0.51em;}.cls-15{letter-spacing:0.51em;}.cls-16{letter-spacing:0.48em;}</style><linearGradient id="linear-gradient" y1="420.94" x2="1344.09" y2="420.94" gradientUnits="userSpaceOnUse"><stop offset="0" stop-color="#614d9b"/><stop offset="0.54" stop-color="#f9ad1d"/><stop offset="1" stop-color="#f9ad1d"/></linearGradient><linearGradient id="linear-gradient-2" x1="672.05" y1="841.89" x2="672.05" y2="0" xlink:href="#linear-gradient"/><linearGradient id="linear-gradient-3" x1="672.05" y1="634.01" x2="672.05" y2="207.88" gradientUnits="userSpaceOnUse"><stop offset="0" stop-color="#f9ad1d"/><stop offset="1" stop-color="#c1282e"/></linearGradient><pattern id="New_Pattern" data-name="New Pattern" width="482.82" height="482.82" patternTransform="translate(315.71 315.87) scale(0.45)" patternUnits="userSpaceOnUse" viewBox="0 0 482.82 482.82"><rect class="cls-1" width="482.82" height="482.82"/><polygon class="cls-2" points="641.73 641.73 641.73 641.73 641.73 476.73 476.73 476.73 641.73 641.73 641.73 641.73"/><polygon class="cls-3" points="476.73 476.73 476.73 641.73 641.73 641.73 476.73 476.73"/><polygon class="cls-2" points="158.91 641.73 158.91 641.73 158.91 476.73 -6.09 476.73 158.91 641.73 158.91 641.73"/><polygon class="cls-3" points="-6.09 476.73 -6.09 641.73 158.91 641.73 -6.09 476.73"/><polygon class="cls-4" points="323.91 476.73 158.91 476.73 158.91 641.73 323.91 476.73"/><polygon class="cls-3" points="323.91 476.73 488.91 641.73 488.91 476.73 323.91 476.73"/><polygon class="cls-3" points="158.91 641.73 323.91 641.73 323.91 476.73 158.91 641.73 158.91 641.73"/><polygon class="cls-5" points="323.91 641.73 488.91 641.73 323.91 476.73 323.91 641.73"/><polygon class="cls-3" points="-158.91 476.73 6.09 641.73 6.09 476.73 -158.91 476.73"/><polygon class="cls-5" points="-158.91 641.73 6.09 641.73 -158.91 476.73 -158.91 641.73"/><polygon class="cls-2" points="641.73 158.91 641.73 158.91 641.73 -6.09 476.73 -6.09 641.73 158.91 641.73 158.91"/><polygon class="cls-3" points="476.73 -6.09 476.73 158.91 641.73 158.91 476.73 -6.09"/><polygon class="cls-6" points="476.73 158.91 476.73 323.91 641.73 158.91 476.73 158.91"/><polygon class="cls-3" points="476.73 488.91 641.73 488.91 476.73 323.91 476.73 488.91"/><polygon class="cls-5" points="641.73 158.91 641.73 158.91 476.73 323.91 641.73 323.91 641.73 158.91"/><polygon class="cls-2" points="476.73 323.91 641.73 488.91 641.73 323.91 476.73 323.91"/><polygon class="cls-2" points="158.91 158.91 158.91 158.91 158.91 -6.09 -6.09 -6.09 158.91 158.91 158.91 158.91"/><polygon class="cls-3" points="-6.09 -6.09 -6.09 158.91 158.91 158.91 -6.09 -6.09"/><polygon class="cls-4" points="323.91 -6.09 158.91 -6.09 158.91 158.91 323.91 -6.09"/><polygon class="cls-3" points="323.91 -6.09 488.91 158.91 488.91 -6.09 323.91 -6.09"/><polygon class="cls-6" points="-6.09 158.91 -6.09 323.91 158.91 158.91 -6.09 158.91"/><polygon class="cls-3" points="-6.09 488.91 158.91 488.91 -6.09 323.91 -6.09 488.91"/><polygon class="cls-3" points="158.91 488.91 323.91 488.91 323.91 323.91 158.91 488.91"/><polygon class="cls-3" points="488.91 323.91 488.91 158.91 323.91 323.91 488.91 323.91"/><polygon class="cls-2" points="488.91 488.91 488.91 323.91 323.91 323.91 488.91 488.91"/><polygon class="cls-4" points="323.91 488.91 488.91 488.91 323.91 323.91 323.91 488.91"/><polygon class="cls-3" points="158.91 158.91 323.91 158.91 323.91 -6.09 158.91 158.91 158.91 158.91"/><polygon class="cls-5" points="323.91 158.91 488.91 158.91 323.91 -6.09 323.91 158.91"/><polygon class="cls-5" points="158.91 158.91 158.91 158.91 -6.09 323.91 158.91 323.91 158.91 158.91"/><polygon class="cls-7" points="158.91 158.91 158.91 158.91 158.91 158.91 158.91 158.91"/><polygon class="cls-2" points="-6.09 323.91 158.91 488.91 158.91 323.91 -6.09 323.91"/><polygon class="cls-3" points="158.91 323.91 323.91 323.91 158.91 158.91 158.91 323.91"/><polygon class="cls-2" points="158.91 158.91 323.91 323.91 323.91 158.91 158.91 158.91 158.91 158.91"/><polygon class="cls-4" points="158.91 323.91 158.91 488.91 323.91 323.91 158.91 323.91"/><polygon class="cls-6" points="323.91 323.91 488.91 158.91 323.91 158.91 323.91 323.91"/><polygon class="cls-3" points="-158.91 -6.09 6.09 158.91 6.09 -6.09 -158.91 -6.09"/><polygon class="cls-3" points="6.09 323.91 6.09 158.91 -158.91 323.91 6.09 323.91"/><polygon class="cls-2" points="6.09 488.91 6.09 323.91 -158.91 323.91 6.09 488.91"/><polygon class="cls-4" points="-158.91 488.91 6.09 488.91 -158.91 323.91 -158.91 488.91"/><polygon class="cls-5" points="-158.91 158.91 6.09 158.91 -158.91 -6.09 -158.91 158.91"/><polygon class="cls-6" points="-158.91 323.91 6.09 158.91 -158.91 158.91 -158.91 323.91"/><polygon class="cls-3" points="476.73 6.09 641.73 6.09 476.73 -158.91 476.73 6.09"/><polygon class="cls-2" points="476.73 -158.91 641.73 6.09 641.73 -158.91 476.73 -158.91"/><polygon class="cls-3" points="-6.09 6.09 158.91 6.09 -6.09 -158.91 -6.09 6.09"/><polygon class="cls-3" points="158.91 6.09 323.91 6.09 323.91 -158.91 158.91 6.09"/><polygon class="cls-2" points="488.91 6.09 488.91 -158.91 323.91 -158.91 488.91 6.09"/><polygon class="cls-4" points="323.91 6.09 488.91 6.09 323.91 -158.91 323.91 6.09"/><polygon class="cls-2" points="-6.09 -158.91 158.91 6.09 158.91 -158.91 -6.09 -158.91"/><polygon class="cls-4" points="158.91 -158.91 158.91 6.09 323.91 -158.91 158.91 -158.91"/><polygon class="cls-2" points="6.09 6.09 6.09 -158.91 -158.91 -158.91 6.09 6.09"/><polygon class="cls-4" points="-158.91 6.09 6.09 6.09 -158.91 -158.91 -158.91 6.09"/></pattern></defs><g class="cls-8"><g id="Layer_2" data-name="Layer 2"><g id="Layer_1-2" data-name="Layer 1"><rect class="cls-9" width="1344.09" height="841.89"/><rect class="cls-10" x="374.41" width="595.28" height="841.89"/><circle class="cls-11" cx="672.05" cy="420.94" r="213.07"/><rect class="cls-12" x="374.41" width="595.28" height="841.89"/><text class="cls-13" transform="translate(539.2 371.31)">P<tspan class="cls-14" x="44.63" y="0">L</tspan><tspan x="86.07" y="0">AN</tspan><tspan class="cls-15" x="179.45" y="0">E</tspan><tspan class="cls-16" x="222.6" y="0">T</tspan></text></g></g></g></svg>